<svg xmlns="http://www.w3.org/2000/svg" viewBox="0 0 512 512" width="512" height="512" role="img" aria-hidden="true">
  <!-- Simple 3-drawer cabinet for reference-files panel watermark (single fill; opacity applied in CSS). -->
  <path fill="#64748b" d="M96 32h320c35.3 0 64 28.7 64 64v320c0 35.3-28.7 64-64 64H96c-35.3 0-64-28.7-64-64V96c0-35.3 28.7-64 64-64zm24 48c-13.3 0-24 10.7-24 24v64c0 13.3 10.7 24 24 24h272c13.3 0 24-10.7 24-24v-64c0-13.3-10.7-24-24-24H120zm0 144c-13.3 0-24 10.7-24 24v64c0 13.3 10.7 24 24 24h272c13.3 0 24-10.7 24-24v-64c0-13.3-10.7-24-24-24H120zm0 144c-13.3 0-24 10.7-24 24v64c0 13.3 10.7 24 24 24h272c13.3 0 24-10.7 24-24v-64c0-13.3-10.7-24-24-24H120z"/>
  <path fill="#475569" d="M352 69h64c8.8 0 16 7.2 16 16s-7.2 16-16 16h-64c-8.8 0-16-7.2-16-16s7.2-16 16-16zm0 144h64c8.8 0 16 7.2 16 16s-7.2 16-16 16h-64c-8.8 0-16-7.2-16-16s7.2-16 16-16zm0 144h64c8.8 0 16 7.2 16 16s-7.2 16-16 16h-64c-8.8 0-16-7.2-16-16s7.2-16 16-16z"/>
</svg>
